<svg xmlns="http://www.w3.org/2000/svg" viewBox="0 0 1008.52 108.78"><defs><style>.cls-1{fill:#FFC300;} .cls-developer{fill:#FFFFFF;}</style></defs><g id="Capa_2" data-name="Capa 2">
<g id="Capa_1-2" data-name="Capa 1">
<path class="cls-1" d="M0,61.2V.83H10.55V61.2Z"/>
<path class="cls-1" d="M49.17,61.2c-16.86,0-29.32-13.28-29.32-30.8C19.85,12.62,32.31.83,49.17.83H81.89V11.38H49.17c-10.8,0-18.77,8-18.77,19.51s7.89,19.77,18.77,19.77H75V35H47.75V26.08H85.62V61.2Z"/>
<path class="cls-1" d="M105.15,17V61.2H95.1V6.4c0-3.91,2.08-6.32,5.4-6.32A6,6,0,0,1,105,2.24l42.6,42.27V.33h10V55.64c0,4-2.16,6.31-5.23,6.31a6.7,6.7,0,0,1-4.82-2.24Z"/>
<path class="cls-1" d="M230.81,61.2,221.76,46H193.19l5-8.56h18.52L203.24,14.86,175.83,61.2h-12L198.51,3.4c1.24-2.07,2.82-3.4,5.15-3.4s3.81,1.33,5.06,3.4l34.8,57.8Z"/>
<path class="cls-1" d="M269.53,61.2c-16.86,0-29.32-13.28-29.32-30.8,0-17.78,12.46-29.57,29.32-29.57h32.72V11.38H269.53c-10.8,0-18.77,8-18.77,19.51s7.89,19.77,18.77,19.77h32.72V61.2Z"/>
<path class="cls-1" d="M311.39,61.2V.83h10.55V61.2Z"/>
<path class="cls-1" d="M360.56,61.2c-16.86,0-29.32-13.28-29.32-30.8C331.24,12.62,343.7.83,360.56.83h14.7c17.44,0,29.56,12,29.56,29.57s-12.37,30.8-29.56,30.8Zm14.7-10.54c11.12,0,19-8.39,19-19.77s-7.89-19.51-19-19.51h-14.7c-10.8,0-18.77,8-18.77,19.51s7.89,19.77,18.77,19.77Z"/>
<path class="cls-1" d="M481.27,61.2C464.41,61.2,452,47.92,452,30.4,452,12.62,464.41.83,481.27.83H514V11.38H481.27c-10.79,0-18.77,8-18.77,19.51s7.89,19.77,18.77,19.77H507.1V35H479.86V26.08h37.87V61.2Z"/>
<path class="cls-1" d="M555,61.2c-16.86,0-29.32-13.28-29.32-30.8C525.71,12.62,538.17.83,555,.83h14.7c17.44,0,29.56,12,29.56,29.57s-12.37,30.8-29.56,30.8Zm14.7-10.54c11.12,0,19-8.39,19-19.77s-7.89-19.51-19-19.51H555c-10.8,0-18.77,8-18.77,19.51S544.15,50.66,555,50.66Z"/>
<path class="cls-1" d="M617.66,17V61.2h-10V6.4c0-3.91,2.07-6.32,5.39-6.32a6,6,0,0,1,4.49,2.16l42.6,42.27V.33h10V55.64c0,4-2.16,6.31-5.23,6.31a6.74,6.74,0,0,1-4.82-2.24Z"/>
<path class="cls-1" d="M684.44,61.2c-3.16,0-6-1.82-6-5.39a6.34,6.34,0,0,1,2.16-4.49l40.11-40.44H679.2V.83H732c3.07,0,6,1.83,6,5.4a6.36,6.36,0,0,1-2.16,4.48L695.73,51.16h42v10Z"/>
<path class="cls-1" d="M809.93,61.2l-9-15.19H772.31l5-8.56h18.52L782.36,14.86,755,61.2h-12L777.62,3.4c1.25-2.07,2.83-3.4,5.15-3.4s3.82,1.33,5.07,3.4l34.79,57.8Z"/>
<path class="cls-1" d="M829.13,61.2V.83h10.54V50.66h40.61V61.2Z"/>
<path class="cls-1" d="M887.85,61.2V.83h53.9V11.38H898.31V50.66h43.52V61.2ZM906,35V26.08H939.5V35Z"/>
<path class="cls-1" d="M955,61.2c-3.16,0-6-1.82-6-5.39a6.38,6.38,0,0,1,2.16-4.49l40.11-40.44H949.73V.83h52.82c3.07,0,6,1.83,6,5.4a6.35,6.35,0,0,1-2.15,4.48L966.26,51.16h42v10Z"/>
<path class="cls-developer" d="M334.34,108.53a1,1,0,0,1-1-1V89.42a1,1,0,0,1,1-1H339a10.86,10.86,0,0,1,4.06.73,9.08,9.08,0,0,1,3.18,2.09,9.51,9.51,0,0,1,2.07,3.18,10.69,10.69,0,0,1,.74,4,10.81,10.81,0,0,1-.74,4.05,9.49,9.49,0,0,1-2.07,3.2,9.19,9.19,0,0,1-3.18,2.08,10.86,10.86,0,0,1-4.06.74Zm1-1.81H339a8.13,8.13,0,0,0,4.19-1.06,7.64,7.64,0,0,0,2.84-2.94,9.32,9.32,0,0,0,0-8.52,7.48,7.48,0,0,0-2.84-2.93,8.22,8.22,0,0,0-4.19-1h-3.63Z"/>
<path class="cls-developer" d="M374.77,108.53a1,1,0,0,1-.72-.29,1,1,0,0,1-.29-.72V89.42a1,1,0,0,1,.29-.72.94.94,0,0,1,.72-.28h12.07a1,1,0,0,1,.71.27.89.89,0,0,1,.3.7.87.87,0,0,1-.3.67,1,1,0,0,1-.71.29H375.77v7.1h8.06a1,1,0,0,1,.72.29,1,1,0,0,1,0,1.39,1,1,0,0,1-.72.28h-8.06v7.18h11.07a1,1,0,0,1,.71.29.89.89,0,0,1,.3.67.91.91,0,0,1-.3.71,1,1,0,0,1-.71.27Z"/>
<path class="cls-developer" d="M418.85,108.53a1,1,0,0,1-.93-.65L410.28,90a1.3,1.3,0,0,1,0-1.15.91.91,0,0,1,.86-.42,1,1,0,0,1,.93.64l7.1,17h-.56l7.08-16.94a1.05,1.05,0,0,1,.39-.54,1.1,1.1,0,0,1,.61-.15.79.79,0,0,1,.8.45,1.23,1.23,0,0,1,0,1l-7.68,18a1,1,0,0,1-.38.5A1,1,0,0,1,418.85,108.53Z"/>
<path class="cls-developer" d="M452.22,108.53a1,1,0,0,1-1-1V89.42a1,1,0,0,1,1-1H464.3a1,1,0,0,1,.71.27.89.89,0,0,1,.29.7.87.87,0,0,1-.29.67,1,1,0,0,1-.71.29H453.23v7.1h8.06a1,1,0,0,1,.72.29,1,1,0,0,1,0,1.39,1,1,0,0,1-.72.28h-8.06v7.18H464.3a1,1,0,0,1,.71.29.88.88,0,0,1,.29.67.91.91,0,0,1-.29.71,1,1,0,0,1-.71.27Z"/>
<path class="cls-developer" d="M490.64,108.53a1,1,0,0,1-.71-.29,1,1,0,0,1-.29-.72V89.42a1,1,0,0,1,.29-.71,1,1,0,0,1,.71-.29,1,1,0,0,1,.71.29,1,1,0,0,1,.3.71v17.2h10.07a1,1,0,0,1,.7.27.93.93,0,0,1,0,1.37,1,1,0,0,1-.7.27Z"/>
<path class="cls-developer" d="M534,108.78a10.68,10.68,0,0,1-4.12-.77,9.67,9.67,0,0,1-3.26-2.16,9.89,9.89,0,0,1-2.13-3.27,11.49,11.49,0,0,1,0-8.22,9.64,9.64,0,0,1,5.39-5.43,11.35,11.35,0,0,1,8.22,0,10.13,10.13,0,0,1,3.27,2.16,9.94,9.94,0,0,1,2.15,3.27,11.49,11.49,0,0,1,0,8.22,9.94,9.94,0,0,1-2.15,3.27,9.82,9.82,0,0,1-3.27,2.16A10.61,10.61,0,0,1,534,108.78Zm0-1.9a8.51,8.51,0,0,0,3.3-.63,8,8,0,0,0,2.64-1.78,8.38,8.38,0,0,0,1.74-2.68,9.34,9.34,0,0,0,0-6.64A8.49,8.49,0,0,0,540,92.47a8.14,8.14,0,0,0-2.64-1.78,9,9,0,0,0-6.62,0,8.14,8.14,0,0,0-2.64,1.78,8.32,8.32,0,0,0-1.74,2.68,9.34,9.34,0,0,0,0,6.64,8.21,8.21,0,0,0,1.74,2.68,8,8,0,0,0,2.64,1.78A8.57,8.57,0,0,0,534,106.88Z"/>
<path class="cls-developer" d="M570.06,108.53a1,1,0,0,1-1-1V89.42a1,1,0,0,1,1-1h5.15a6.66,6.66,0,0,1,3.37.83,6,6,0,0,1,2.29,2.31,6.82,6.82,0,0,1,.83,3.4,6.64,6.64,0,0,1-.83,3.33,6,6,0,0,1-2.29,2.29,6.66,6.66,0,0,1-3.37.84h-4.15v6.1a1,1,0,0,1-1,1Zm1-9h4.15a4.77,4.77,0,0,0,2.34-.58,4.15,4.15,0,0,0,1.61-1.61,4.67,4.67,0,0,0,.58-2.34,4.79,4.79,0,0,0-.58-2.4,4.25,4.25,0,0,0-1.61-1.62,4.57,4.57,0,0,0-2.34-.59h-4.15Z"/>
<path class="cls-developer" d="M606.42,108.53a1,1,0,0,1-.72-.29,1,1,0,0,1-.29-.72V89.42a1,1,0,0,1,.29-.72.94.94,0,0,1,.72-.28h12.07a1,1,0,0,1,.71.27.89.89,0,0,1,.3.7.87.87,0,0,1-.3.67,1,1,0,0,1-.71.29H607.42v7.1h8.06a1,1,0,0,1,.72.29,1,1,0,0,1,0,1.39,1,1,0,0,1-.72.28h-8.06v7.18h11.07a1,1,0,0,1,.71.29.89.89,0,0,1,.3.67.91.91,0,0,1-.3.71,1,1,0,0,1-.71.27Z"/>
<path class="cls-developer" d="M644.84,108.53a1,1,0,0,1-.73-.29,1,1,0,0,1-.28-.72V89.42a1,1,0,0,1,.28-.72,1,1,0,0,1,.73-.28h4.81a7,7,0,0,1,3.35.78,5.71,5.71,0,0,1,2.3,2.19,6.17,6.17,0,0,1,.84,3.23,5.83,5.83,0,0,1-.84,3.12,5.7,5.7,0,0,1-2.3,2.13,7,7,0,0,1-3.35.78h-3.81v6.87a1,1,0,0,1-1,1Zm1-9.81h3.81a5,5,0,0,0,2.33-.53,4.06,4.06,0,0,0,1.61-1.46,3.79,3.79,0,0,0,.59-2.11,4.15,4.15,0,0,0-.59-2.23,4.08,4.08,0,0,0-1.61-1.5,4.89,4.89,0,0,0-2.33-.54h-3.81Zm9.76,9.81a1,1,0,0,1-.53-.13,1.35,1.35,0,0,1-.35-.39l-4.94-7.88,2-.51L656.4,107a1.07,1.07,0,0,1,.14,1.08A1,1,0,0,1,655.6,108.53Z"/></g></g></svg>