<svg xmlns="http://www.w3.org/2000/svg" viewBox="0 0 996.93 686.41"><defs><style>.cls-1{fill:#FFC300;} .cls-developer{fill:#FFFFFF;}</style></defs>
<g id="Capa_2" data-name="Capa 2"><g id="Capa_2-2" data-name="Capa 2"><rect class="cls-1" x="360.46" width="41.79" height="41.79"/>
<path class="cls-1" d="M138.36,502.32V394.16h18.89V502.32Z"/>
<path class="cls-1" d="M226.43,502.32c-30.2,0-52.52-23.8-52.52-55.2,0-31.83,22.32-53,52.52-53H285v18.9H226.43c-19.34,0-33.62,14.43-33.62,35s14.13,35.4,33.62,35.4H272.7V455.31H223.9V439.39h67.84v62.93Z"/>
<path class="cls-1" d="M326.7,423.17v79.15h-18V404.13c0-7,3.72-11.31,9.67-11.31,2.83,0,5.21,1,8,3.87l76.32,75.73V393.27h18v99.08c0,7.14-3.87,11.31-9.38,11.31-3.12,0-6-1.34-8.63-4Z"/>
<path class="cls-1" d="M551.8,502.32l-16.22-27.23H484.4l8.93-15.32h33.18L502.4,419.3l-49.09,83H431.74l62.18-103.55c2.24-3.72,5.06-6.1,9.23-6.1s6.84,2.38,9.07,6.1l62.34,103.55Z"/>
<path class="cls-1" d="M621.13,502.32c-30.2,0-52.52-23.8-52.52-55.2,0-31.83,22.32-53,52.52-53h58.61v18.9H621.13c-19.34,0-33.63,14.43-33.63,35s14.14,35.4,33.63,35.4h58.61v18.9Z"/>
<path class="cls-1" d="M696.11,502.32V394.16H715V502.32Z"/>
<path class="cls-1" d="M784.19,502.32c-30.2,0-52.52-23.8-52.52-55.2,0-31.83,22.32-53,52.52-53h26.33c31.24,0,53,21.57,53,53s-22.16,55.2-53,55.2Zm26.33-18.9c19.93,0,34.07-15,34.07-35.4s-14.14-35-34.07-35H784.19c-19.34,0-33.63,14.43-33.63,35s14.14,35.4,33.63,35.4Z"/>
<path class="cls-1" d="M52.52,636.11C22.32,636.11,0,612.31,0,580.92c0-31.84,22.32-53,52.52-53h58.61v18.9H52.52c-19.34,0-33.63,14.43-33.63,35S33,617.22,52.52,617.22H98.78V589.1H50V573.18h67.84v62.93Z"/>
<path class="cls-1" d="M184.63,636.11c-30.2,0-52.52-23.8-52.52-55.19,0-31.84,22.32-53,52.52-53H211c31.24,0,53,21.58,53,53s-22.16,55.19-53,55.19ZM211,617.22c19.93,0,34.07-15,34.07-35.41s-14.14-35-34.07-35H184.63c-19.34,0-33.63,14.43-33.63,35s14.14,35.41,33.63,35.41Z"/>
<path class="cls-1" d="M296.8,557v79.15h-18V537.92c0-7,3.72-11.31,9.67-11.31,2.83,0,5.21,1,8,3.87l76.31,75.73V527.06h18v99.08c0,7.14-3.87,11.31-9.38,11.31-3.12,0-5.95-1.34-8.63-4Z"/>
<path class="cls-1" d="M416.42,636.11c-5.66,0-10.72-3.27-10.72-9.67,0-2.83,1.34-5.5,3.87-8L481.43,546H407V528h94.62c5.51,0,10.71,3.28,10.71,9.67,0,2.83-1.34,5.51-3.86,8l-71.86,72.45h75.28v18Z"/>
<path class="cls-1" d="M641.21,636.11,625,608.89H573.82l8.92-15.33h33.18l-24.1-40.46-49.1,83H521.15l62.19-103.54c2.23-3.72,5.06-6.1,9.22-6.1s6.85,2.38,9.08,6.1L664,636.11Z"/>
<path class="cls-1" d="M675.58,636.11V528h18.9v89.27h72.75v18.89Z"/>
<path class="cls-1" d="M780.76,636.11V528h96.56v18.9H799.51v70.37h78v18.89Zm32.59-47V573.18H873.3V589.1Z"/>
<path class="cls-1" d="M901,636.11c-5.65,0-10.71-3.27-10.71-9.67,0-2.83,1.34-5.5,3.87-8L966,546H891.6V528h94.62c5.5,0,10.71,3.28,10.71,9.67,0,2.83-1.34,5.51-3.87,8l-71.85,72.45h75.27v18Z"/>
<path class="cls-developer" d="M212.13,678.19a1.26,1.26,0,0,1-1.27-1.27,1.25,1.25,0,0,1,.37-.94,1.21,1.21,0,0,1,.9-.37H220a1.27,1.27,0,0,1,.94.37,1.25,1.25,0,0,1,.37.94,1.21,1.21,0,0,1-.37.9,1.27,1.27,0,0,1-.94.37Z"/>
<path class="cls-developer" d="M307.44,686.08a1.31,1.31,0,0,1-.94-.37,1.27,1.27,0,0,1-.37-.94V661.18a1.25,1.25,0,0,1,.37-.94,1.27,1.27,0,0,1,.94-.37h6a14.35,14.35,0,0,1,5.29,1,12.08,12.08,0,0,1,4.14,2.72,12.36,12.36,0,0,1,2.7,4.15,15,15,0,0,1,0,10.55,12.21,12.21,0,0,1-2.7,4.16,11.93,11.93,0,0,1-4.14,2.72,14.15,14.15,0,0,1-5.29,1Zm1.31-2.35h4.73a10.5,10.5,0,0,0,5.45-1.39,9.9,9.9,0,0,0,3.71-3.83,12.18,12.18,0,0,0,0-11.11,9.78,9.78,0,0,0-3.71-3.81,10.68,10.68,0,0,0-5.45-1.37h-4.73Z"/>
<path class="cls-developer" d="M353.42,686.08a1.29,1.29,0,0,1-.94-.37,1.27,1.27,0,0,1-.37-.94V661.18a1.27,1.27,0,0,1,1.31-1.31h15.73a1.36,1.36,0,0,1,.93.35,1.26,1.26,0,0,1,0,1.8,1.33,1.33,0,0,1-.93.37H354.72v9.26h10.51a1.27,1.27,0,0,1,.94.37,1.23,1.23,0,0,1,.37.9,1.27,1.27,0,0,1-.37.91,1.31,1.31,0,0,1-.94.37H354.72v9.36h14.43a1.29,1.29,0,0,1,.93.37,1.16,1.16,0,0,1,.38.87,1.2,1.2,0,0,1-.38.93,1.36,1.36,0,0,1-.93.35Z"/>
<path class="cls-developer" d="M404.16,686.08a1.25,1.25,0,0,1-1.21-.84l-10-23.32a1.72,1.72,0,0,1-.05-1.5,1.18,1.18,0,0,1,1.12-.55,1.25,1.25,0,0,1,1.21.84l9.26,22.15h-.73L413,660.77a1.52,1.52,0,0,1,.51-.7,1.46,1.46,0,0,1,.8-.2,1,1,0,0,1,1,.59,1.6,1.6,0,0,1,0,1.32l-10,23.46a1.33,1.33,0,0,1-.5.65A1.24,1.24,0,0,1,404.16,686.08Z"/>
<path class="cls-developer" d="M440.94,686.08a1.29,1.29,0,0,1-.94-.37,1.27,1.27,0,0,1-.37-.94V661.18a1.27,1.27,0,0,1,1.31-1.31h15.73a1.36,1.36,0,0,1,.93.35,1.26,1.26,0,0,1,0,1.8,1.33,1.33,0,0,1-.93.37H442.24v9.26h10.51a1.27,1.27,0,0,1,.94.37,1.23,1.23,0,0,1,.37.9,1.27,1.27,0,0,1-.37.91,1.31,1.31,0,0,1-.94.37H442.24v9.36h14.43a1.29,1.29,0,0,1,.93.37,1.16,1.16,0,0,1,.38.87,1.2,1.2,0,0,1-.38.93,1.36,1.36,0,0,1-.93.35Z"/>
<path class="cls-developer" d="M484.29,686.08a1.31,1.31,0,0,1-.92-.37,1.24,1.24,0,0,1-.39-.94V661.18a1.23,1.23,0,0,1,.39-.92,1.25,1.25,0,0,1,.92-.39,1.31,1.31,0,0,1,1.31,1.31v22.41h13.12a1.32,1.32,0,0,1,.93.36,1.16,1.16,0,0,1,.38.89,1.19,1.19,0,0,1-.38.89,1.36,1.36,0,0,1-.93.35Z"/>
<path class="cls-developer" d="M534.13,686.41a14,14,0,0,1-5.37-1,12.79,12.79,0,0,1-4.25-2.82,12.93,12.93,0,0,1-2.78-4.26,14.25,14.25,0,0,1-1-5.37,14.1,14.1,0,0,1,1-5.34,12.93,12.93,0,0,1,2.78-4.26,12.64,12.64,0,0,1,4.25-2.82,14.67,14.67,0,0,1,10.7,0,12.76,12.76,0,0,1,7.07,7.08,14.1,14.1,0,0,1,1,5.34,14.25,14.25,0,0,1-1,5.37,12.7,12.7,0,0,1-2.81,4.26,12.93,12.93,0,0,1-4.26,2.82A13.9,13.9,0,0,1,534.13,686.41Zm0-2.48a11,11,0,0,0,4.29-.82,10.2,10.2,0,0,0,3.44-2.32,10.53,10.53,0,0,0,2.27-3.49,12.12,12.12,0,0,0,0-8.66,10.63,10.63,0,0,0-2.27-3.49,10.32,10.32,0,0,0-3.44-2.31,11.74,11.74,0,0,0-8.62,0,10.32,10.32,0,0,0-3.44,2.31,10.63,10.63,0,0,0-2.27,3.49,12.12,12.12,0,0,0,0,8.66,10.53,10.53,0,0,0,2.27,3.49,10.2,10.2,0,0,0,3.44,2.32A11.13,11.13,0,0,0,534.13,683.93Z"/>
<path class="cls-developer" d="M574.36,686.08a1.27,1.27,0,0,1-1.31-1.31V661.18a1.29,1.29,0,0,1,.37-.94,1.27,1.27,0,0,1,.94-.37h6.72a8.67,8.67,0,0,1,4.39,1.09,7.83,7.83,0,0,1,3,3,9,9,0,0,1,1.07,4.43,8.71,8.71,0,0,1-1.07,4.35,7.88,7.88,0,0,1-3,3,8.77,8.77,0,0,1-4.39,1.09h-5.41v7.95a1.27,1.27,0,0,1-.37.94A1.29,1.29,0,0,1,574.36,686.08Zm1.31-11.78h5.41a6.06,6.06,0,0,0,3-.76,5.48,5.48,0,0,0,2.1-2.09,6.19,6.19,0,0,0,.75-3.06,6.32,6.32,0,0,0-.75-3.12,5.6,5.6,0,0,0-2.1-2.11,6,6,0,0,0-3-.77h-5.41Z"/>
<path class="cls-developer" d="M615,686.08a1.29,1.29,0,0,1-.94-.37,1.27,1.27,0,0,1-.37-.94V661.18a1.27,1.27,0,0,1,1.31-1.31h15.74a1.35,1.35,0,0,1,.92.35,1.23,1.23,0,0,1,0,1.8,1.33,1.33,0,0,1-.92.37H616.35v9.26h10.5a1.27,1.27,0,0,1,.94.37,1.19,1.19,0,0,1,.37.9,1.23,1.23,0,0,1-.37.91,1.31,1.31,0,0,1-.94.37h-10.5v9.36h14.43a1.28,1.28,0,0,1,.92.37,1.17,1.17,0,0,1,.39.87,1.21,1.21,0,0,1-.39.93,1.35,1.35,0,0,1-.92.35Z"/>
<path class="cls-developer" d="M658.39,686.08a1.27,1.27,0,0,1-1.31-1.31V661.18a1.29,1.29,0,0,1,.37-.94,1.27,1.27,0,0,1,.94-.37h6.28a9.11,9.11,0,0,1,4.36,1,7.67,7.67,0,0,1,3,2.86,8.1,8.1,0,0,1,1.09,4.21,7.47,7.47,0,0,1-4.1,6.84,9.22,9.22,0,0,1-4.36,1h-5v9a1.27,1.27,0,0,1-.37.94A1.29,1.29,0,0,1,658.39,686.08Zm1.31-12.79h5a6.52,6.52,0,0,0,3-.69,5.38,5.38,0,0,0,2.09-1.89,5,5,0,0,0,.78-2.75,5.41,5.41,0,0,0-.78-2.91,5.33,5.33,0,0,0-2.09-2,6.4,6.4,0,0,0-3-.7h-5Zm12.72,12.79a1.26,1.26,0,0,1-.69-.17,1.58,1.58,0,0,1-.45-.5l-6.44-10.27,2.61-.67,6,9.59a1.37,1.37,0,0,1,.19,1.41A1.26,1.26,0,0,1,672.42,686.08Z"/>
<path class="cls-developer" d="M757.09,678.19a1.25,1.25,0,0,1-1.27-1.27,1.28,1.28,0,0,1,.36-.94,1.23,1.23,0,0,1,.91-.37H765a1.27,1.27,0,0,1,.94.37,1.29,1.29,0,0,1,.37.94,1.25,1.25,0,0,1-.37.9,1.27,1.27,0,0,1-.94.37Z"/>
<path class="cls-1" d="M494.34,54.09V88.58h-23v115h23V238h-69V54.09Z"/>
<path class="cls-1" d="M572.84,54.54V343.89l-69,.15v-36.8h23v-219l-23-.36V54.09Z"/>
<path class="cls-1" d="M409.93,52.38v184H341V201.84h23v-115H341V52.38Z"/>
<path class="cls-1" d="M494.34,252.07v17.24h-23V326.8h23V344h-69v-92Z"/></g></g></svg>