<svg xmlns="http://www.w3.org/2000/svg" viewBox="0 0 1001.16 315.68"><defs><style>.cls-1{fill:#FFC300;} .cls-developer{fill:#FFFFFF;}</style></defs>
<g id="Capa_2" data-name="Capa 2"><g id="Capa_2-2" data-name="Capa 2">
<path class="cls-1" d="M140.74,49.63V81.28h-21.1V186.77h21.1v31.65H77.45V49.63Z"/>
<path class="cls-1" d="M212.78,50.05V315.54l-63.3.14V281.91h21.1V81l-21.1-.33v-31Z"/>
<path class="cls-1" d="M63.3,48.06V216.85H0V185.2H21.1V79.71H0V48.06Z"/>
<rect class="cls-1" x="17.9" width="38.34" height="38.34"/>
<path class="cls-1" d="M257.91,160.87V50h19.36V160.87Z"/>
<path class="cls-1" d="M348.18,160.87c-30.95,0-53.83-24.4-53.83-56.57,0-32.64,22.88-54.29,53.83-54.29h60.09V69.38H348.18c-19.82,0-34.46,14.79-34.46,35.83s14.49,36.3,34.46,36.3h47.43V112.69h-50V96.37h69.54v64.5Z"/>
<path class="cls-1" d="M451,79.74v81.13H432.51V60.22c0-7.16,3.81-11.58,9.91-11.58,2.9,0,5.34,1.06,8.24,4l78.23,77.62V49.09h18.45V150.66c0,7.32-4,11.59-9.61,11.59-3.2,0-6.1-1.38-8.84-4.12Z"/>
<path class="cls-1" d="M681.69,160.87,665.06,133H612.6l9.15-15.71h34l-24.7-41.48-50.33,85.09H558.62L622.36,54.74c2.29-3.82,5.19-6.26,9.46-6.26s7,2.44,9.3,6.26L705,160.87Z"/>
<path class="cls-1" d="M752.75,160.87c-31,0-53.84-24.4-53.84-56.57,0-32.64,22.88-54.29,53.84-54.29h60.08V69.38H752.75c-19.83,0-34.47,14.79-34.47,35.83s14.49,36.3,34.47,36.3h60.08v19.36Z"/>
<path class="cls-1" d="M829.6,160.87V50H849V160.87Z"/>
<path class="cls-1" d="M919.88,160.87c-31,0-53.83-24.4-53.83-56.57,0-32.64,22.87-54.29,53.83-54.29h27c32,0,54.29,22.11,54.29,54.29s-22.72,56.57-54.29,56.57Zm27-19.36c20.44,0,34.92-15.41,34.92-36.3s-14.48-35.83-34.92-35.83h-27c-19.82,0-34.46,14.79-34.46,35.83s14.48,36.3,34.46,36.3Z"/>
<path class="cls-1" d="M291.06,262.14c-22.53,0-39.17-17.76-39.17-41.17,0-23.74,16.64-39.5,39.17-39.5h43.72v14.09H291.06c-14.43,0-25.08,10.76-25.08,26.08S276.52,248,291.06,248h34.51v-21h-36.4V215.2h50.6v46.94Z"/>
<path class="cls-1" d="M389.58,262.14c-22.52,0-39.17-17.76-39.17-41.17,0-23.74,16.65-39.5,39.17-39.5h19.64c23.3,0,39.5,16.09,39.5,39.5s-16.53,41.17-39.5,41.17ZM409.22,248c14.87,0,25.41-11.2,25.41-26.4s-10.54-26.08-25.41-26.08H389.58c-14.42,0-25.07,10.76-25.07,26.08S375.05,248,389.58,248Z"/>
<path class="cls-1" d="M473.24,203.11v59H459.81V188.9c0-5.21,2.77-8.43,7.21-8.43,2.11,0,3.89.78,6,2.89l56.93,56.47v-59h13.42v73.9c0,5.33-2.88,8.43-7,8.43a8.91,8.91,0,0,1-6.43-3Z"/>
<path class="cls-1" d="M562.44,262.14c-4.22,0-8-2.45-8-7.22a8.54,8.54,0,0,1,2.88-6l53.6-54H555.45V181.47H626c4.1,0,8,2.44,8,7.21a8.48,8.48,0,0,1-2.89,6l-53.59,54h56.14v13.43Z"/>
<path class="cls-1" d="M730.09,262.14,718,241.83H679.83l6.65-11.43h24.75l-18-30.18-36.61,61.92H640.55l46.38-77.23c1.66-2.77,3.77-4.55,6.88-4.55s5.1,1.78,6.76,4.55l46.5,77.23Z"/>
<path class="cls-1" d="M755.71,262.14V181.47h14.1V248h54.25v14.1Z"/>
<path class="cls-1" d="M834.15,262.14V181.47h72v14.09h-58V248h58.14v14.1Zm24.31-35.07V215.2h44.71v11.87Z"/>
<path class="cls-1" d="M923.8,262.14c-4.21,0-8-2.45-8-7.22a8.52,8.52,0,0,1,2.89-6l53.59-54H916.81V181.47h70.57c4.11,0,8,2.44,8,7.21a8.48,8.48,0,0,1-2.89,6l-53.59,54H995v13.43Z"/>
<path class="cls-developer" d="M293.92,300.6a1.26,1.26,0,0,1-.92-.38,1.23,1.23,0,0,1-.38-.93,1.3,1.3,0,0,1,1.3-1.34H302a1.3,1.3,0,0,1,1.34,1.34,1.27,1.27,0,0,1-.38.93,1.3,1.3,0,0,1-1,.38Z"/>
<path class="cls-developer" d="M412.25,308.68a1.3,1.3,0,0,1-1.34-1.34V283.16a1.3,1.3,0,0,1,1.34-1.34h6.19a14.6,14.6,0,0,1,5.42,1,12.18,12.18,0,0,1,4.25,2.79,12.82,12.82,0,0,1,2.77,4.24,15.42,15.42,0,0,1,0,10.82,12.85,12.85,0,0,1-2.77,4.27,12.3,12.3,0,0,1-4.25,2.78,14.4,14.4,0,0,1-5.42,1Zm1.34-2.4h4.85a10.84,10.84,0,0,0,5.59-1.43,10.08,10.08,0,0,0,3.8-3.92,12.44,12.44,0,0,0,0-11.39,10,10,0,0,0-3.8-3.9,10.93,10.93,0,0,0-5.59-1.41h-4.85Z"/>
<path class="cls-developer" d="M466.25,308.68a1.27,1.27,0,0,1-1-.38,1.3,1.3,0,0,1-.38-1V283.16a1.3,1.3,0,0,1,.38-1,1.27,1.27,0,0,1,1-.38h16.14a1.35,1.35,0,0,1,.94.36,1.24,1.24,0,0,1,.4.95,1.21,1.21,0,0,1-.4.89,1.32,1.32,0,0,1-.94.38H467.6v9.49h10.76a1.34,1.34,0,0,1,1,.38,1.35,1.35,0,0,1,0,1.86,1.34,1.34,0,0,1-1,.38H467.6v9.59h14.79a1.32,1.32,0,0,1,.94.38,1.26,1.26,0,0,1,0,1.84,1.35,1.35,0,0,1-.94.36Z"/>
<path class="cls-developer" d="M525.14,308.68a1.28,1.28,0,0,1-1.24-.86l-10.21-23.9a1.72,1.72,0,0,1-.05-1.53,1.2,1.2,0,0,1,1.15-.57,1.3,1.3,0,0,1,1.24.86l9.49,22.7h-.76l9.46-22.63a1.27,1.27,0,0,1,1.34-.93,1.06,1.06,0,0,1,1.07.6,1.7,1.7,0,0,1,0,1.36l-10.25,24a1.37,1.37,0,0,1-.52.67A1.28,1.28,0,0,1,525.14,308.68Z"/>
<path class="cls-developer" d="M569.72,308.68a1.3,1.3,0,0,1-1.34-1.34V283.16a1.3,1.3,0,0,1,1.34-1.34h16.13a1.37,1.37,0,0,1,.95.36,1.24,1.24,0,0,1,.39.95,1.2,1.2,0,0,1-.39.89,1.35,1.35,0,0,1-.95.38H571.06v9.49h10.77a1.3,1.3,0,0,1,1,.38,1.33,1.33,0,0,1,0,1.86,1.3,1.3,0,0,1-1,.38H571.06v9.59h14.79a1.35,1.35,0,0,1,.95.38,1.28,1.28,0,0,1,0,1.84,1.37,1.37,0,0,1-.95.36Z"/>
<path class="cls-developer" d="M621,308.68a1.31,1.31,0,0,1-.95-.38,1.27,1.27,0,0,1-.39-1V283.16a1.34,1.34,0,1,1,2.68,0v23h13.45a1.37,1.37,0,0,1,.95.36,1.26,1.26,0,0,1,0,1.82,1.37,1.37,0,0,1-.95.36Z"/>
<path class="cls-developer" d="M679,309a14.48,14.48,0,0,1-5.5-1,13.18,13.18,0,0,1-4.36-2.89,13.33,13.33,0,0,1-2.85-4.37,15.43,15.43,0,0,1,0-11,13.18,13.18,0,0,1,2.85-4.36,12.88,12.88,0,0,1,4.36-2.89,15,15,0,0,1,11,0,13.12,13.12,0,0,1,4.37,2.89,12.93,12.93,0,0,1,2.87,4.36,15.43,15.43,0,0,1,0,11,13.07,13.07,0,0,1-2.87,4.37,13.43,13.43,0,0,1-4.37,2.89A14.43,14.43,0,0,1,679,309Zm0-2.55a11.38,11.38,0,0,0,4.4-.84,10.33,10.33,0,0,0,3.53-2.38,10.74,10.74,0,0,0,2.32-3.57,12.29,12.29,0,0,0,0-8.88,10.85,10.85,0,0,0-2.32-3.57,10.63,10.63,0,0,0-3.53-2.38A11.38,11.38,0,0,0,679,284a11.51,11.51,0,0,0-4.44.84,10.58,10.58,0,0,0-3.52,2.38,11,11,0,0,0-2.33,3.57,12.43,12.43,0,0,0,0,8.88,10.93,10.93,0,0,0,2.33,3.57,10.29,10.29,0,0,0,3.52,2.38A11.51,11.51,0,0,0,679,306.48Z"/>
<path class="cls-developer" d="M727.12,308.68a1.27,1.27,0,0,1-1-.38,1.3,1.3,0,0,1-.38-1V283.16a1.3,1.3,0,0,1,.38-1,1.27,1.27,0,0,1,1-.38H734a8.9,8.9,0,0,1,4.51,1.12,8.06,8.06,0,0,1,3.06,3.07,9.2,9.2,0,0,1,1.1,4.55,8.92,8.92,0,0,1-1.1,4.45,8,8,0,0,1-3.06,3.06,8.9,8.9,0,0,1-4.51,1.12h-5.54v8.15a1.3,1.3,0,0,1-1.34,1.34Zm1.34-12.07H734a6.34,6.34,0,0,0,3.13-.77,5.62,5.62,0,0,0,2.15-2.15,6.26,6.26,0,0,0,.77-3.13,6.34,6.34,0,0,0-.77-3.2,5.67,5.67,0,0,0-2.15-2.17,6.14,6.14,0,0,0-3.13-.79h-5.54Z"/>
<path class="cls-developer" d="M775.69,308.68a1.3,1.3,0,0,1-1.34-1.34V283.16a1.3,1.3,0,0,1,1.34-1.34h16.13a1.37,1.37,0,0,1,.95.36,1.24,1.24,0,0,1,.39.95,1.2,1.2,0,0,1-.39.89,1.35,1.35,0,0,1-.95.38H777v9.49H787.8a1.3,1.3,0,0,1,1,.38,1.33,1.33,0,0,1,0,1.86,1.3,1.3,0,0,1-1,.38H777v9.59h14.79a1.35,1.35,0,0,1,.95.38,1.28,1.28,0,0,1,0,1.84,1.37,1.37,0,0,1-.95.36Z"/>
<path class="cls-developer" d="M827,308.68a1.27,1.27,0,0,1-1-.38,1.3,1.3,0,0,1-.38-1V283.16a1.3,1.3,0,0,1,.38-1,1.27,1.27,0,0,1,1-.38h6.43a9.28,9.28,0,0,1,4.47,1.05,7.74,7.74,0,0,1,3.08,2.92,8.23,8.23,0,0,1,1.12,4.32,7.71,7.71,0,0,1-4.2,7,9.51,9.51,0,0,1-4.47,1h-5.09v9.18a1.3,1.3,0,0,1-1.34,1.34Zm1.34-13.1h5.09a6.7,6.7,0,0,0,3.12-.71,5.6,5.6,0,0,0,2.15-1.94,5.21,5.21,0,0,0,.79-2.82,5.67,5.67,0,0,0-.79-3,5.54,5.54,0,0,0-2.15-2,6.59,6.59,0,0,0-3.12-.72h-5.09Zm13,13.1a1.25,1.25,0,0,1-.71-.17,1.65,1.65,0,0,1-.46-.51l-6.61-10.53,2.69-.69,6.16,9.84a1.39,1.39,0,0,1,.18,1.44A1.26,1.26,0,0,1,841.39,308.68Z"/>
<path class="cls-developer" d="M948.81,300.6a1.3,1.3,0,0,1-1.31-1.31,1.3,1.3,0,0,1,.38-1,1.27,1.27,0,0,1,.93-.38h8.08a1.34,1.34,0,0,1,1,.38,1.3,1.3,0,0,1,.37,1,1.26,1.26,0,0,1-.37.93,1.34,1.34,0,0,1-1,.38Z"/>
<path class="cls-1" d="M140.74,227.23v16.58h-21.1V299.1h21.1v16.58H77.45V227.23Z"/></g></g></svg>