<svg xmlns="http://www.w3.org/2000/svg" viewBox="0 0 996.93 294.74"><defs><style>.cls-1{fill:#FFC300}.cls-2{fill:#fff;}</style></defs><g id="Capa_2" data-name="Capa 2"><g id="Capa_2-2" data-name="Capa 2">
<path class="cls-1" d="M138.36,109.64V1.49h18.89V109.64Z"/>
<path class="cls-1" d="M226.43,109.64c-30.2,0-52.52-23.8-52.52-55.19,0-31.84,22.32-53,52.52-53H285V20.38H226.43c-19.34,0-33.62,14.43-33.62,35,0,20.38,14.13,35.41,33.62,35.41H272.7V62.63H223.9V46.71h67.84v62.93Z"/>
<path class="cls-1" d="M326.7,30.5v79.14h-18V11.45c0-7,3.72-11.3,9.67-11.3,2.83,0,5.21,1,8,3.87l76.32,75.72V.59h18V99.68c0,7.14-3.87,11.3-9.38,11.3-3.12,0-6-1.34-8.63-4Z"/>
<path class="cls-1" d="M551.8,109.64,535.58,82.42H484.4l8.93-15.32h33.18L502.4,26.63l-49.09,83H431.74L493.92,6.1C496.16,2.38,499,0,503.15,0s6.84,2.38,9.07,6.1l62.34,103.54Z"/>
<path class="cls-1" d="M621.13,109.64c-30.2,0-52.52-23.8-52.52-55.19,0-31.84,22.32-53,52.52-53h58.61V20.38H621.13c-19.34,0-33.63,14.43-33.63,35,0,20.38,14.14,35.41,33.63,35.41h58.61v18.89Z"/>
<path class="cls-1" d="M696.11,109.64V1.49H715V109.64Z"/>
<path class="cls-1" d="M784.19,109.64c-30.2,0-52.52-23.8-52.52-55.19,0-31.84,22.32-53,52.52-53h26.33c31.24,0,53,21.57,53,53s-22.16,55.19-53,55.19Zm26.33-18.89c19.93,0,34.07-15,34.07-35.41s-14.14-35-34.07-35H784.19c-19.34,0-33.63,14.43-33.63,35,0,20.38,14.14,35.41,33.63,35.41Z"/>
<path class="cls-1" d="M52.52,243.44C22.32,243.44,0,219.63,0,188.24c0-31.83,22.32-53,52.52-53h58.61v18.89H52.52c-19.34,0-33.63,14.43-33.63,35S33,224.54,52.52,224.54H98.78V196.42H50V180.51h67.84v62.93Z"/>
<path class="cls-1" d="M184.63,243.44c-30.2,0-52.52-23.81-52.52-55.2,0-31.83,22.32-53,52.52-53H211c31.24,0,53,21.57,53,53s-22.16,55.2-53,55.2ZM211,224.54c19.93,0,34.07-15,34.07-35.41s-14.14-35-34.07-35H184.63c-19.34,0-33.63,14.43-33.63,35s14.14,35.41,33.63,35.41Z"/>
<path class="cls-1" d="M296.8,164.29v79.15h-18V145.25c0-7,3.72-11.31,9.67-11.31,2.83,0,5.21,1,8,3.87l76.31,75.72V134.39h18v99.08c0,7.14-3.87,11.31-9.38,11.31-3.12,0-5.95-1.34-8.63-4Z"/>
<path class="cls-1" d="M416.42,243.44c-5.66,0-10.72-3.28-10.72-9.67,0-2.83,1.34-5.51,3.87-8l71.86-72.45H407v-18h94.62c5.51,0,10.71,3.27,10.71,9.67,0,2.83-1.34,5.5-3.86,8l-71.86,72.45h75.28v18Z"/>
<path class="cls-1" d="M641.21,243.44,625,216.21H573.82l8.92-15.32h33.18l-24.1-40.47-49.1,83H521.15l62.19-103.55c2.23-3.72,5.06-6.1,9.22-6.1s6.85,2.38,9.08,6.1L664,243.44Z"/>
<path class="cls-1" d="M675.58,243.44V135.28h18.9v89.26h72.75v18.9Z"/>
<path class="cls-1" d="M780.76,243.44V135.28h96.56v18.89H799.51v70.37h78v18.9Zm32.59-47V180.51H873.3v15.91Z"/>
<path class="cls-1" d="M901,243.44c-5.65,0-10.71-3.28-10.71-9.67,0-2.83,1.34-5.51,3.87-8L966,153.28H891.6v-18h94.62c5.5,0,10.71,3.27,10.71,9.67,0,2.83-1.34,5.5-3.87,8l-71.85,72.45h75.27v18Z"/>
<path d="M212.13,285.52a1.21,1.21,0,0,1-.9-.37,1.23,1.23,0,0,1-.37-.91,1.27,1.27,0,0,1,.37-.94,1.25,1.25,0,0,1,.9-.37H220a1.31,1.31,0,0,1,.94.37,1.27,1.27,0,0,1,.37.94,1.23,1.23,0,0,1-.37.91,1.27,1.27,0,0,1-.94.37Z"/>
<path class="cls-2" d="M220,286.52h-7.89a2.24,2.24,0,0,1-1.61-.66,2.34,2.34,0,0,1,0-3.26,2.21,2.21,0,0,1,1.61-.67H220a2.31,2.31,0,0,1,1.65,3.93A2.29,2.29,0,0,1,220,286.52Zm-7.89-2.59a.23.23,0,0,0-.19.08.28.28,0,0,0-.08.23.23.23,0,0,0,.08.2.23.23,0,0,0,.19.08H220c.16,0,.2,0,.23-.08a.23.23,0,0,0,.08-.2.28.28,0,0,0-.08-.23s-.07-.08-.23-.08Z"/>
<path d="M307.44,293.4a1.27,1.27,0,0,1-.94-.37,1.23,1.23,0,0,1-.37-.93V268.5a1.27,1.27,0,0,1,.37-.94,1.31,1.31,0,0,1,.94-.37h6a14.15,14.15,0,0,1,5.29,1,11.93,11.93,0,0,1,4.14,2.72,12.42,12.42,0,0,1,2.7,4.14,15,15,0,0,1,0,10.56,12.3,12.3,0,0,1-2.7,4.16,12.08,12.08,0,0,1-4.14,2.72,14.35,14.35,0,0,1-5.29.95Zm1.31-2.34h4.73a10.5,10.5,0,0,0,5.45-1.4,9.87,9.87,0,0,0,3.71-3.82,12.18,12.18,0,0,0,0-11.11,9.78,9.78,0,0,0-3.71-3.81,10.59,10.59,0,0,0-5.45-1.38h-4.73Z"/>
<path class="cls-2" d="M313.48,294.4h-6a2.26,2.26,0,0,1-2.31-2.3V268.5a2.26,2.26,0,0,1,2.31-2.3h6a15.31,15.31,0,0,1,5.66,1,13,13,0,0,1,4.48,2.95,13.22,13.22,0,0,1,2.92,4.47,16,16,0,0,1,0,11.3,13.3,13.3,0,0,1-2.92,4.49,13,13,0,0,1-4.48,2.95A15.31,15.31,0,0,1,313.48,294.4Zm-6-26.2c-.16,0-.2,0-.23.07a.28.28,0,0,0-.08.23v23.6c0,.15,0,.2.08.23s.07.07.23.07h6a13.21,13.21,0,0,0,4.92-.88,11.2,11.2,0,0,0,3.8-2.49,11.35,11.35,0,0,0,2.48-3.83,13.21,13.21,0,0,0,.89-4.92,13,13,0,0,0-.89-4.89,11,11,0,0,0-6.28-6.31,13.21,13.21,0,0,0-4.92-.88Zm6,23.86h-5.73V268.54h5.73a11.64,11.64,0,0,1,6,1.52,10.74,10.74,0,0,1,4.08,4.19,13.2,13.2,0,0,1,0,12.07,10.84,10.84,0,0,1-4.08,4.2A11.53,11.53,0,0,1,313.48,292.06Zm-3.73-2h3.73a9.66,9.66,0,0,0,4.95-1.26,9,9,0,0,0,3.34-3.44,11.25,11.25,0,0,0,0-10.15,9,9,0,0,0-3.34-3.43,9.73,9.73,0,0,0-4.95-1.24h-3.73Z"/>
<path d="M353.42,293.4a1.25,1.25,0,0,1-.94-.37,1.23,1.23,0,0,1-.37-.93V268.5a1.27,1.27,0,0,1,.37-.94,1.29,1.29,0,0,1,.94-.37h15.73a1.32,1.32,0,0,1,.93.36,1.16,1.16,0,0,1,.38.92,1.13,1.13,0,0,1-.38.87,1.29,1.29,0,0,1-.93.37H354.72V279h10.51a1.31,1.31,0,0,1,.94.37,1.27,1.27,0,0,1,.37.91,1.23,1.23,0,0,1-.37.9,1.27,1.27,0,0,1-.94.37H354.72v9.37h14.43a1.29,1.29,0,0,1,.93.37,1.13,1.13,0,0,1,.38.87,1.16,1.16,0,0,1-.38.92,1.32,1.32,0,0,1-.93.35Z"/>
<path class="cls-2" d="M369.15,294.4H353.42a2.24,2.24,0,0,1-1.65-.66,2.27,2.27,0,0,1-.66-1.64V268.5a2.27,2.27,0,0,1,.66-1.64,2.24,2.24,0,0,1,1.65-.66h15.73a2.33,2.33,0,0,1,1.6.61,2.24,2.24,0,0,1,0,3.26,2.26,2.26,0,0,1-1.61.64H355.72V278h9.51a2.27,2.27,0,0,1,1.64.66,2.29,2.29,0,0,1,0,3.23,2.27,2.27,0,0,1-1.65.66h-9.51v7.37h13.43a2.27,2.27,0,0,1,1.62.65,2.24,2.24,0,0,1,0,3.25A2.33,2.33,0,0,1,369.15,294.4Zm-15.73-26.2c-.16,0-.21,0-.24.07a.28.28,0,0,0-.07.23v23.6a.28.28,0,0,0,.07.23s.08.07.24.07h15.73a.3.3,0,0,0,.25-.09s.06-.05.06-.18a.18.18,0,0,0-.07-.15.32.32,0,0,0-.24-.09H353.72V280.52h11.51a.28.28,0,0,0,.23-.07.29.29,0,0,0,0-.4.28.28,0,0,0-.23-.08H353.72V268.71h15.43a.28.28,0,0,0,.23-.09c.08-.08.08-.11.08-.15s0-.16-.06-.19a.34.34,0,0,0-.25-.08Z"/>
<path d="M404.16,293.4a1.24,1.24,0,0,1-1.21-.83l-10-23.33a1.7,1.7,0,0,1-.05-1.49,1.19,1.19,0,0,1,1.12-.56,1.26,1.26,0,0,1,1.21.84l9.26,22.15h-.73L413,268.1a1.52,1.52,0,0,1,.51-.7,1.38,1.38,0,0,1,.8-.21,1,1,0,0,1,1,.59,1.63,1.63,0,0,1,0,1.33l-10,23.46a1.18,1.18,0,0,1-1.17.83Z"/>
<path class="cls-2" d="M404.16,294.4A2.24,2.24,0,0,1,402,293l-10-23.34a2.67,2.67,0,0,1,0-2.38,2.17,2.17,0,0,1,2-1.05,2.23,2.23,0,0,1,2.13,1.43l8,19.08,7.93-19a2.48,2.48,0,0,1,.88-1.16,2.41,2.41,0,0,1,1.35-.36,2,2,0,0,1,1.95,1.16,2.62,2.62,0,0,1,0,2.13l-10,23.47a2.31,2.31,0,0,1-.9,1.11A2.25,2.25,0,0,1,404.16,294.4Zm-.72-3.22.43,1c.1.23.17.23.29.23a.31.31,0,0,0,.15,0,1.88,1.88,0,0,0,.1-.2l.42-1Zm-9.39-23a.55.55,0,0,0-.25,0s-.05.23.11.63l8.95,20.94.21-.51-8.73-20.88C394.24,268.2,394.17,268.2,394.05,268.2Zm11.19,21.1.2.47,9-21.06a.63.63,0,0,0,0-.51h-.14a.87.87,0,0,0-.25,0,1.15,1.15,0,0,0-.13.24Z"/>
<path d="M440.94,293.4A1.25,1.25,0,0,1,440,293a1.23,1.23,0,0,1-.37-.93V268.5a1.27,1.27,0,0,1,.37-.94,1.29,1.29,0,0,1,.94-.37h15.73a1.32,1.32,0,0,1,.93.36,1.16,1.16,0,0,1,.38.92,1.13,1.13,0,0,1-.38.87,1.29,1.29,0,0,1-.93.37H442.24V279h10.51a1.31,1.31,0,0,1,.94.37,1.27,1.27,0,0,1,.37.91,1.23,1.23,0,0,1-.37.9,1.27,1.27,0,0,1-.94.37H442.24v9.37h14.43a1.29,1.29,0,0,1,.93.37,1.13,1.13,0,0,1,.38.87,1.16,1.16,0,0,1-.38.92,1.32,1.32,0,0,1-.93.35Z"/>
<path class="cls-2" d="M456.67,294.4H440.94a2.24,2.24,0,0,1-1.65-.66,2.27,2.27,0,0,1-.66-1.64V268.5a2.27,2.27,0,0,1,.66-1.64,2.24,2.24,0,0,1,1.65-.66h15.73a2.33,2.33,0,0,1,1.6.61,2.16,2.16,0,0,1,.71,1.66,2.2,2.2,0,0,1-.69,1.6,2.3,2.3,0,0,1-1.62.64H443.25V278h9.5a2.27,2.27,0,0,1,1.64.66,2.29,2.29,0,0,1,0,3.23,2.27,2.27,0,0,1-1.65.66h-9.5v7.37h13.42a2.27,2.27,0,0,1,1.62.65,2.24,2.24,0,0,1,0,3.25A2.33,2.33,0,0,1,456.67,294.4Zm-15.73-26.2c-.16,0-.21,0-.24.07a.28.28,0,0,0-.07.23v23.6a.3.3,0,0,0,.07.23s.08.07.24.07h15.73a.3.3,0,0,0,.25-.09s.06-.05.06-.18a.18.18,0,0,0-.07-.15.3.3,0,0,0-.24-.09H441.25V280.52h11.5c.16,0,.2,0,.23-.07a.29.29,0,0,0,0-.4.28.28,0,0,0-.23-.08h-11.5V268.71h15.42a.3.3,0,0,0,.24-.09c.07-.08.07-.11.07-.15s0-.16-.06-.19a.34.34,0,0,0-.25-.08Z"/>
<path d="M484.29,293.4a1.27,1.27,0,0,1-.92-.37,1.21,1.21,0,0,1-.39-.93V268.5a1.26,1.26,0,0,1,.39-.92,1.25,1.25,0,0,1,.92-.39,1.27,1.27,0,0,1,.93.39,1.29,1.29,0,0,1,.38.92v22.42h13.12a1.36,1.36,0,0,1,.93.35,1.19,1.19,0,0,1,.38.89,1.16,1.16,0,0,1-.38.89,1.32,1.32,0,0,1-.93.35Z"/>
<path class="cls-2" d="M498.72,294.4H484.29a2.29,2.29,0,0,1-1.61-.64,2.24,2.24,0,0,1-.7-1.66V268.5a2.26,2.26,0,0,1,.69-1.63,2.32,2.32,0,0,1,3.25,0,2.25,2.25,0,0,1,.68,1.63v21.42h12.12a2.33,2.33,0,0,1,1.6.61,2.23,2.23,0,0,1,0,3.26A2.33,2.33,0,0,1,498.72,294.4Zm-14.43-26.2a.25.25,0,0,0-.21.09.26.26,0,0,0-.1.21v23.6a.24.24,0,0,0,.08.21.28.28,0,0,0,.23.09h14.43a.3.3,0,0,0,.25-.09s.06-.06.06-.15A.16.16,0,0,0,499,292a.34.34,0,0,0-.25-.09H484.6V268.5a.25.25,0,0,0-.09-.21A.27.27,0,0,0,484.29,268.2Z"/>
<path d="M534.13,293.74a14,14,0,0,1-5.37-1,12.61,12.61,0,0,1-7-7.08,15,15,0,0,1,0-10.7,12.53,12.53,0,0,1,7-7.08,14.67,14.67,0,0,1,10.7,0,12.91,12.91,0,0,1,4.26,2.81,12.65,12.65,0,0,1,2.81,4.27,15,15,0,0,1,0,10.7,12.51,12.51,0,0,1-2.81,4.26,12.78,12.78,0,0,1-4.26,2.82A13.9,13.9,0,0,1,534.13,293.74Zm0-2.48a11,11,0,0,0,4.29-.83,10.17,10.17,0,0,0,3.44-2.31,10.63,10.63,0,0,0,2.27-3.49,12.12,12.12,0,0,0,0-8.66,10.63,10.63,0,0,0-2.27-3.49,10.17,10.17,0,0,0-3.44-2.31,11.61,11.61,0,0,0-8.62,0,10.17,10.17,0,0,0-3.44,2.31,10.63,10.63,0,0,0-2.27,3.49,12.12,12.12,0,0,0,0,8.66,10.63,10.63,0,0,0,2.27,3.49,10.17,10.17,0,0,0,3.44,2.31A11.14,11.14,0,0,0,534.13,291.26Z"/>
<path class="cls-2" d="M534.13,294.74a15,15,0,0,1-5.75-1.08A13.62,13.62,0,0,1,520.8,286a16,16,0,0,1,0-11.46,14,14,0,0,1,3-4.59,13.79,13.79,0,0,1,4.58-3,15.74,15.74,0,0,1,11.46,0,13.84,13.84,0,0,1,4.59,3,13.58,13.58,0,0,1,3,4.59,15.88,15.88,0,0,1,0,11.46,13.58,13.58,0,0,1-3,4.59,14,14,0,0,1-4.59,3A14.89,14.89,0,0,1,534.13,294.74Zm0-26.88a13,13,0,0,0-5,.93,11.73,11.73,0,0,0-3.92,2.6,12.06,12.06,0,0,0-2.57,3.93,14.08,14.08,0,0,0,0,10,12.06,12.06,0,0,0,2.57,3.93,11.73,11.73,0,0,0,3.92,2.6,13.74,13.74,0,0,0,9.94,0,12.08,12.08,0,0,0,3.94-2.6,11.77,11.77,0,0,0,2.58-3.93,13.94,13.94,0,0,0,0-10,11.93,11.93,0,0,0-2.58-3.93,12.08,12.08,0,0,0-3.94-2.6A12.91,12.91,0,0,0,534.13,267.86Zm0,24.4a12.4,12.4,0,0,1-4.72-.9,11.45,11.45,0,0,1-3.77-2.54,11.64,11.64,0,0,1-2.47-3.82,13,13,0,0,1,0-9.4,11.53,11.53,0,0,1,2.47-3.82,11.39,11.39,0,0,1,3.78-2.54,12.7,12.7,0,0,1,9.39,0,11.45,11.45,0,0,1,3.77,2.54,11.59,11.59,0,0,1,2.47,3.81,13,13,0,0,1,0,9.41,11.64,11.64,0,0,1-2.47,3.82,11.39,11.39,0,0,1-3.78,2.54A12.22,12.22,0,0,1,534.13,292.26Zm0-21.92a10.15,10.15,0,0,0-4,.75,9.36,9.36,0,0,0-3.11,2.09,9.79,9.79,0,0,0-2.05,3.16,11.11,11.11,0,0,0,0,7.92,9.9,9.9,0,0,0,2.05,3.16,9.36,9.36,0,0,0,3.11,2.09,10.77,10.77,0,0,0,7.86,0,9.36,9.36,0,0,0,3.11-2.09,9.9,9.9,0,0,0,2.05-3.16,11.11,11.11,0,0,0,0-7.92,9.79,9.79,0,0,0-2.05-3.16,9.36,9.36,0,0,0-3.11-2.09A10.05,10.05,0,0,0,534.13,270.34Z"/>
<path d="M574.36,293.4a1.27,1.27,0,0,1-1.31-1.3V268.5a1.27,1.27,0,0,1,1.31-1.31h6.72a8.67,8.67,0,0,1,4.39,1.1,7.7,7.7,0,0,1,3,3,8.94,8.94,0,0,1,1.07,4.43,8.7,8.7,0,0,1-1.07,4.34,7.81,7.81,0,0,1-3,3,8.67,8.67,0,0,1-4.39,1.09h-5.41v8a1.23,1.23,0,0,1-.37.93A1.25,1.25,0,0,1,574.36,293.4Zm1.31-11.78h5.41a6.16,6.16,0,0,0,3-.75,5.43,5.43,0,0,0,2.1-2.1,6.13,6.13,0,0,0,.75-3,6.26,6.26,0,0,0-.75-3.12,5.62,5.62,0,0,0-2.1-2.12,6.06,6.06,0,0,0-3-.77h-5.41Z"/>
<path class="cls-2" d="M574.36,294.4a2.27,2.27,0,0,1-2.31-2.3V268.5a2.27,2.27,0,0,1,2.31-2.3h6.72a9.78,9.78,0,0,1,4.89,1.22,8.8,8.8,0,0,1,3.36,3.38,9.88,9.88,0,0,1,1.2,4.92,9.68,9.68,0,0,1-1.2,4.84,8.89,8.89,0,0,1-3.36,3.36,9.78,9.78,0,0,1-4.89,1.22h-4.41v7a2.27,2.27,0,0,1-.66,1.64A2.24,2.24,0,0,1,574.36,294.4Zm0-26.2a.28.28,0,0,0-.23.07.28.28,0,0,0-.08.23v23.6a.28.28,0,0,0,.08.23.28.28,0,0,0,.23.07c.16,0,.21,0,.24-.07a.28.28,0,0,0,.07-.23v-9h6.41a7.75,7.75,0,0,0,3.9-1,6.75,6.75,0,0,0,2.61-2.61,7.76,7.76,0,0,0,.94-3.85,8,8,0,0,0-.94-3.94,6.87,6.87,0,0,0-2.61-2.63,7.85,7.85,0,0,0-3.9-.95Zm6.72,14.42h-6.41V268.71h6.41a7.05,7.05,0,0,1,3.55.91,6.49,6.49,0,0,1,2.47,2.49,7.34,7.34,0,0,1,.88,3.61,7.18,7.18,0,0,1-.88,3.54,6.42,6.42,0,0,1-2.48,2.48A7.07,7.07,0,0,1,581.08,282.62Zm-4.41-2h4.41a5.11,5.11,0,0,0,2.56-.62,4.44,4.44,0,0,0,1.72-1.72,5.11,5.11,0,0,0,.62-2.56,5.25,5.25,0,0,0-.62-2.63,4.59,4.59,0,0,0-1.73-1.74,5,5,0,0,0-2.55-.64h-4.41Z"/>
<path d="M615,293.4a1.25,1.25,0,0,1-.94-.37,1.23,1.23,0,0,1-.37-.93V268.5a1.27,1.27,0,0,1,.37-.94,1.29,1.29,0,0,1,.94-.37h15.74a1.32,1.32,0,0,1,.92.36,1.17,1.17,0,0,1,.39.92,1.14,1.14,0,0,1-.39.87,1.28,1.28,0,0,1-.92.37H616.35V279h10.5a1.31,1.31,0,0,1,.94.37,1.23,1.23,0,0,1,.37.91,1.19,1.19,0,0,1-.37.9,1.27,1.27,0,0,1-.94.37h-10.5v9.37h14.43a1.28,1.28,0,0,1,.92.37,1.14,1.14,0,0,1,.39.87,1.17,1.17,0,0,1-.39.92,1.31,1.31,0,0,1-.92.35Z"/>
<path class="cls-2" d="M630.78,294.4H615a2.24,2.24,0,0,1-1.65-.66,2.27,2.27,0,0,1-.66-1.64V268.5a2.27,2.27,0,0,1,.66-1.64,2.24,2.24,0,0,1,1.65-.66h15.74a2.32,2.32,0,0,1,1.59.61,2.17,2.17,0,0,1,.72,1.66,2.21,2.21,0,0,1-.7,1.6,2.29,2.29,0,0,1-1.61.64H617.35V278h9.5a2.27,2.27,0,0,1,1.64.66,2.29,2.29,0,0,1,0,3.23,2.27,2.27,0,0,1-1.65.66h-9.5v7.37h13.43a2.26,2.26,0,0,1,1.61.65,2.21,2.21,0,0,1,0,3.25A2.32,2.32,0,0,1,630.78,294.4ZM615,268.2c-.16,0-.21,0-.24.07a.28.28,0,0,0-.07.23v23.6a.28.28,0,0,0,.07.23s.08.07.24.07h15.74a.33.33,0,0,0,.25-.09s.06-.05.06-.18,0-.08-.08-.15a.28.28,0,0,0-.23-.09H615.35V280.52h11.5c.16,0,.2,0,.23-.07a.29.29,0,0,0,0-.4s-.09-.08-.23-.08h-11.5V268.71h15.43a.28.28,0,0,0,.23-.09c.08-.08.08-.11.08-.15a.21.21,0,0,0-.07-.19.33.33,0,0,0-.24-.08Z"/>
<path d="M658.39,293.4a1.27,1.27,0,0,1-1.31-1.3V268.5a1.27,1.27,0,0,1,1.31-1.31h6.28a9.12,9.12,0,0,1,4.36,1,7.58,7.58,0,0,1,3,2.85,8.12,8.12,0,0,1,1.09,4.21,7.66,7.66,0,0,1-1.09,4.06,7.58,7.58,0,0,1-3,2.79,9.22,9.22,0,0,1-4.36,1h-5v9a1.23,1.23,0,0,1-.37.93A1.25,1.25,0,0,1,658.39,293.4Zm1.31-12.78h5a6.52,6.52,0,0,0,3-.69,5.33,5.33,0,0,0,2.09-1.9,4.94,4.94,0,0,0,.78-2.75,5.4,5.4,0,0,0-.78-2.9,5.33,5.33,0,0,0-2.09-2,6.4,6.4,0,0,0-3-.71h-5Zm12.72,12.78a1.26,1.26,0,0,1-.69-.16,1.52,1.52,0,0,1-.45-.51l-6.44-10.27,2.61-.67,6,9.6a1.37,1.37,0,0,1,.19,1.41A1.27,1.27,0,0,1,672.42,293.4Z"/>
<path class="cls-2" d="M672.42,294.4a2.2,2.2,0,0,1-1.24-.33,2.55,2.55,0,0,1-.76-.83l-5.71-9.11h-4v8a2.27,2.27,0,0,1-.66,1.64,2.4,2.4,0,0,1-3.29,0,2.23,2.23,0,0,1-.66-1.64V268.5a2.25,2.25,0,0,1,2.3-2.3h6.28a10.07,10.07,0,0,1,4.83,1.14,8.55,8.55,0,0,1,3.39,3.22,9.06,9.06,0,0,1,1.24,4.72A8.48,8.48,0,0,1,669.5,283l-.08,0,4.89,7.81a2.3,2.3,0,0,1,.22,2.41A2.22,2.22,0,0,1,672.42,294.4Zm-.14-2h.14c.18,0,.32,0,.34-.07s0-.2-.15-.41l-5.09-8.14-.59.14,5.2,8.28a1,1,0,0,0,.15.2Zm-13.89-24.2a.26.26,0,0,0-.3.3v23.6a.26.26,0,0,0,.3.3c.16,0,.21,0,.24-.07a.28.28,0,0,0,.07-.23v-10h4.75l-.19-.29.85-.22H658.7V268.71h6a7.37,7.37,0,0,1,3.51.83,6.32,6.32,0,0,1,3.4,5.74,6,6,0,0,1-.93,3.29,6.42,6.42,0,0,1-2.48,2.25l-.11.05.3.48.21-.11a6.52,6.52,0,0,0,3.56-6,7,7,0,0,0-1-3.7,6.59,6.59,0,0,0-2.62-2.48,8.15,8.15,0,0,0-3.89-.9Zm2.31,11.42h4a5.6,5.6,0,0,0,2.58-.58A4.33,4.33,0,0,0,669,277.5a4,4,0,0,0,.62-2.22,4.43,4.43,0,0,0-.63-2.38,4.32,4.32,0,0,0-1.71-1.6,5.44,5.44,0,0,0-2.57-.59h-4Z"/>
<path d="M757.09,285.52a1.23,1.23,0,0,1-.91-.37,1.26,1.26,0,0,1-.36-.91,1.3,1.3,0,0,1,.36-.94,1.27,1.27,0,0,1,.91-.37H765a1.27,1.27,0,0,1,1.31,1.31,1.26,1.26,0,0,1-1.31,1.28Z"/>
<path class="cls-2" d="M765,286.52h-7.89a2.31,2.31,0,0,1-1.61-3.92,2.21,2.21,0,0,1,1.61-.67H765a2.31,2.31,0,0,1,1.65,3.93A2.31,2.31,0,0,1,765,286.52Zm-7.89-2.59a.25.25,0,0,0-.2.08.28.28,0,0,0-.07.23.23.23,0,0,0,.07.2.25.25,0,0,0,.2.08H765a.28.28,0,0,0,.23-.08.23.23,0,0,0,.08-.2.28.28,0,0,0-.31-.31Z"/></g></g></svg>