<svg xmlns="http://www.w3.org/2000/svg" viewBox="0 0 591.87 753.69"><defs><style>.cls-1{fill:#FFC300;} .cls-developer{fill:#FFFFFF;}</style></defs>
<g id="Capa_2" data-name="Capa 2"><g id="Capa_1-2" data-name="Capa 1">
<path class="cls-1" d="M336,118.49v75.56H285.65V445.91H336v75.56H184.9v-403Z"/>
<path class="cls-1" d="M508,119.48V753.36l-151.12.33V673.06h50.37V193.33l-50.37-.79v-74Z"/>
<path class="cls-1" d="M151.12,114.74v403H0V442.16H50.37V190.3H0V114.74Z"/>
<rect class="cls-1" x="42.75" width="91.54" height="91.54"/>
<path class="cls-1" d="M336,552.2V590H285.65V715.91H336v37.78H184.9V552.2Z"/>
<path class="cls-developer" d="M539.3,164.09V119.44h25.85c12.59,0,21.75,8.9,21.75,21.86s-9.16,22.79-21.75,22.79Zm25.85-7.8c8.05,0,13.94-6.21,13.94-14.62s-5.89-14.43-13.94-14.43H547v29.05Z"/>
<path class="cls-developer" d="M543,237.79V193.14h39.86v7.8H550.72V230H582.9v7.8Zm13.45-19.41v-6.57h24.75v6.57Z"/>
<path class="cls-developer" d="M532.91,266.84h9.52l20.27,34.39,20.2-34.39h9l-25.73,42.74a4.41,4.41,0,0,1-3.75,2.52,4.35,4.35,0,0,1-3.81-2.52Z"/>
<path class="cls-developer" d="M543,385.19V340.54h39.86v7.8H550.72v29.05H582.9v7.8Zm13.45-19.41v-6.57h24.75v6.57Z"/>
<path class="cls-developer" d="M544.58,458.89V414.24h7.8v36.85h30v7.8Z"/>
<path class="cls-developer" d="M557,532.59c-12.47,0-21.69-9.83-21.69-22.79,0-13.14,9.22-21.86,21.69-21.86h10.87c12.89,0,21.86,8.91,21.86,21.86s-9.15,22.79-21.86,22.79Zm10.87-7.8c8.23,0,14.06-6.2,14.06-14.62s-5.83-14.43-14.06-14.43H557c-8,0-13.89,6-13.89,14.43s5.84,14.62,13.89,14.62Z"/>
<path class="cls-developer" d="M553.12,593.88v-7.55h17.93c5.47,0,8.72-3.44,8.72-8.48s-3.25-8.41-8.72-8.41H547.4v36.85h-7.73V561.64h31.38c10.32,0,16.34,6.2,16.34,16s-6,16.27-16.34,16.27Z"/>
<path class="cls-developer" d="M543,680V635.34h39.86v7.8H550.72v29.05H582.9V680Zm13.45-19.41V654h24.75v6.57Z"/>
<path class="cls-developer" d="M579.46,753.69l-11.3-12.4h-16.7v-6.88h18.61c5.59,0,8.53-3.2,8.53-9s-3.19-8.6-8.53-8.6H545.75v36.85H538V709h32.06c10.19,0,16.21,6.33,16.21,16.28,0,7.37-3.44,12.59-9.21,14.8l13.45,13.57Z"/></g></g></svg>